<svg width="30" height="34" viewBox="0 0 30 34" fill="none" xmlns="http://www.w3.org/2000/svg">
<path d="M22.7575 8.75H27.6908C27.9892 8.75031 28.2768 8.86554 28.498 9.07339C28.7192 9.28123 28.8581 9.56689 28.888 9.875L30 23H27.6908L26.5972 11.25H22.7575V15C22.7575 15.3315 22.6306 15.6495 22.4047 15.8839C22.1789 16.1183 21.8725 16.25 21.5531 16.25C21.2336 16.25 20.9273 16.1183 20.7014 15.8839C20.4755 15.6495 20.3487 15.3315 20.3487 15V11.25H10.7133V15C10.7133 15.3315 10.5864 15.6495 10.3605 15.8839C10.1347 16.1183 9.82833 16.25 9.5089 16.25C9.18947 16.25 8.88312 16.1183 8.65725 15.8839C8.43138 15.6495 8.30448 15.3315 8.30448 15V11.25H4.46239L2.53532 31.25H28.888V33.6421L1.20323 33.75C1.03501 33.7498 0.868686 33.7131 0.714979 33.6421C0.561272 33.5712 0.423587 33.4676 0.310801 33.3381C0.198014 33.2085 0.112627 33.0559 0.0601368 32.89C0.00764634 32.7242 -0.0107857 32.5487 0.00603675 32.375L2.17399 9.875C2.20383 9.56689 2.3428 9.28123 2.56399 9.07339C2.78517 8.86554 3.07281 8.75031 3.37118 8.75H8.30448V7.8775C8.30448 3.5425 11.5227 0 15.531 0C19.5393 0 22.7575 3.5425 22.7575 7.8775V8.7525V8.75ZM20.3487 7.8775C20.3487 4.8925 18.1759 2.5 15.531 2.5C12.8861 2.5 10.7133 4.8925 10.7133 7.8775V8.7525H20.3487V7.8775Z" fill="black"/>
</svg>
