<svg width="32" height="32" viewBox="0 0 32 32" fill="none" xmlns="http://www.w3.org/2000/svg">
<path d="M10.5718 4.28578H10.2861C10.4433 4.28578 10.5718 4.15721 10.5718 4.00007V4.28578H21.429V4.00007C21.429 4.15721 21.5576 4.28578 21.7147 4.28578H21.429V6.85721H24.0004V4.00007C24.0004 2.73936 22.9754 1.71436 21.7147 1.71436H10.2861C9.02542 1.71436 8.00042 2.73936 8.00042 4.00007V6.85721H10.5718V4.28578ZM28.5718 6.85721H3.42899C2.79685 6.85721 2.28613 7.36793 2.28613 8.00007V9.14293C2.28613 9.30007 2.4147 9.42864 2.57185 9.42864H4.72899L5.61113 28.1072C5.66828 29.3251 6.67542 30.2858 7.89328 30.2858H24.1076C25.329 30.2858 26.3326 29.3286 26.3897 28.1072L27.2718 9.42864H29.429C29.5861 9.42864 29.7147 9.30007 29.7147 9.14293V8.00007C29.7147 7.36793 29.204 6.85721 28.5718 6.85721ZM23.8326 27.7144H8.16828L7.30399 9.42864H24.6968L23.8326 27.7144Z" fill="black"/>
</svg>
