<svg width="32" height="32" viewBox="0 0 32 32" fill="none" xmlns="http://www.w3.org/2000/svg">
<path d="M6.91744 24.5715C6.98887 24.5715 7.0603 24.5644 7.13172 24.5536L13.1389 23.5001C13.2103 23.4858 13.2782 23.4536 13.3282 23.4001L28.4674 8.26078C28.5005 8.22774 28.5268 8.1885 28.5447 8.14529C28.5627 8.10209 28.5719 8.05577 28.5719 8.009C28.5719 7.96222 28.5627 7.91591 28.5447 7.8727C28.5268 7.8295 28.5005 7.79025 28.4674 7.75721L22.5317 1.81793C22.4639 1.75007 22.3746 1.71436 22.2782 1.71436C22.1817 1.71436 22.0924 1.75007 22.0246 1.81793L6.8853 16.9572C6.83172 17.0108 6.79958 17.0751 6.7853 17.1465L5.73172 23.1536C5.69698 23.345 5.7094 23.5419 5.76789 23.7273C5.82639 23.9128 5.9292 24.0812 6.06744 24.2179C6.30315 24.4465 6.59958 24.5715 6.91744 24.5715ZM9.32458 18.3429L22.2782 5.39293L24.896 8.01078L11.9424 20.9608L8.76744 21.5215L9.32458 18.3429ZM29.1424 27.5715H2.85672C2.22458 27.5715 1.71387 28.0822 1.71387 28.7144V30.0001C1.71387 30.1572 1.84244 30.2858 1.99958 30.2858H29.9996C30.1567 30.2858 30.2853 30.1572 30.2853 30.0001V28.7144C30.2853 28.0822 29.7746 27.5715 29.1424 27.5715Z" fill="black"/>
</svg>
