<svg width="30" height="35" viewBox="0 0 30 35" fill="none" xmlns="http://www.w3.org/2000/svg">
<g clip-path="url(#clip0_457_26)">
<path d="M20.0707 27.3499L22.8336 30.2149V21.2499C22.8336 20.9184 22.9605 20.6005 23.1864 20.366C23.4123 20.1316 23.7186 19.9999 24.038 19.9999C24.3575 19.9999 24.6638 20.1316 24.8897 20.366C25.1156 20.6005 25.2425 20.9184 25.2425 21.2499V30.2149L28.003 27.3499C28.1141 27.2305 28.247 27.1353 28.3939 27.0698C28.5409 27.0043 28.6989 26.9698 28.8588 26.9684C29.0188 26.9669 29.1774 26.9985 29.3254 27.0614C29.4734 27.1242 29.6079 27.2171 29.721 27.3344C29.8341 27.4518 29.9235 27.5914 29.984 27.745C30.0446 27.8986 30.0751 28.0632 30.0737 28.2292C30.0723 28.3951 30.0391 28.5592 29.9759 28.7117C29.9128 28.8642 29.8211 29.0021 29.706 29.1174L24.8884 34.1174C24.6625 34.3518 24.3562 34.4834 24.0368 34.4834C23.7175 34.4834 23.4112 34.3518 23.1853 34.1174L18.3676 29.1174C18.2526 29.0021 18.1608 28.8642 18.0977 28.7117C18.0346 28.5592 18.0014 28.3951 18 28.2292C17.9986 28.0632 18.0291 27.8986 18.0896 27.745C18.1502 27.5914 18.2396 27.4518 18.3527 27.3344C18.4658 27.2171 18.6003 27.1242 18.7483 27.0614C18.8963 26.9985 19.0549 26.9669 19.2148 26.9684C19.3747 26.9698 19.5328 27.0043 19.6797 27.0698C19.8267 27.1353 19.9596 27.2305 20.0707 27.3499Z" fill="black"/>
<path d="M22.7575 8.75H27.6908C27.9892 8.75031 28.2768 8.86554 28.498 9.07339C28.7192 9.28123 28.8581 9.56689 28.888 9.875L29.6227 17.5H27.1994L26.5972 11.25H22.7575V15C22.7575 15.3315 22.6306 15.6495 22.4047 15.8839C22.1789 16.1183 21.8725 16.25 21.5531 16.25C21.2336 16.25 20.9273 16.1183 20.7014 15.8839C20.4755 15.6495 20.3487 15.3315 20.3487 15V11.25H10.7133V15C10.7133 15.3315 10.5864 15.6495 10.3605 15.8839C10.1347 16.1183 9.82833 16.25 9.5089 16.25C9.18947 16.25 8.88312 16.1183 8.65725 15.8839C8.43138 15.6495 8.30448 15.3315 8.30448 15V11.25H4.46239L2.53532 31.25H15.531V33.75H1.20323C1.03501 33.7498 0.868686 33.7131 0.714979 33.6421C0.561272 33.5712 0.423587 33.4676 0.310801 33.3381C0.198014 33.2085 0.112627 33.0559 0.0601368 32.89C0.00764634 32.7242 -0.0107857 32.5487 0.00603675 32.375L2.17399 9.875C2.20383 9.56689 2.3428 9.28123 2.56399 9.07339C2.78517 8.86554 3.07281 8.75031 3.37118 8.75H8.30448V7.8775C8.30448 3.5425 11.5227 0 15.531 0C19.5393 0 22.7575 3.5425 22.7575 7.8775V8.7525V8.75ZM20.3487 7.8775C20.3487 4.8925 18.1759 2.5 15.531 2.5C12.8861 2.5 10.7133 4.8925 10.7133 7.8775V8.7525H20.3487V7.8775Z" fill="black"/>
</g>
<defs>
<clipPath id="clip0_457_26">
<rect width="30" height="35" fill="white"/>
</clipPath>
</defs>
</svg>
