<svg width="31" height="35" viewBox="0 0 31 35" fill="none" xmlns="http://www.w3.org/2000/svg">
<path d="M23.1169 8.75H28.0502C28.3485 8.75031 28.6362 8.86554 28.8574 9.07339C29.0785 9.28123 29.2175 9.56688 29.2474 9.875L29.982 17.5H27.5588L26.9565 11.25H23.1169V15C23.1169 15.3315 22.99 15.6495 22.7641 15.8839C22.5382 16.1183 22.2319 16.25 21.9124 16.25C21.593 16.25 21.2867 16.1183 21.0608 15.8839C20.8349 15.6495 20.708 15.3315 20.708 15V11.25H11.0727V15C11.0727 15.3315 10.9458 15.6495 10.7199 15.8839C10.494 16.1183 10.1877 16.25 9.86827 16.25C9.54884 16.25 9.24249 16.1183 9.01662 15.8839C8.79075 15.6495 8.66385 15.3315 8.66385 15V11.25H4.82176L2.89469 31.25H15.8904V33.75H1.5626C1.39438 33.7498 1.22806 33.7131 1.07435 33.6421C0.920642 33.5712 0.78296 33.4676 0.670174 33.3381C0.557388 33.2085 0.471999 33.0559 0.419508 32.89C0.367018 32.7242 0.34859 32.5487 0.365412 32.375L2.53336 9.875C2.5632 9.56688 2.70217 9.28123 2.92336 9.07339C3.14454 8.86554 3.43218 8.75031 3.73056 8.75H8.66385V7.8775C8.66385 3.5425 11.8821 0 15.8904 0C19.8987 0 23.1169 3.5425 23.1169 7.8775V8.7525V8.75ZM20.708 8.75V7.8775C20.708 4.8925 18.5353 2.5 15.8904 2.5C13.2455 2.5 11.0727 4.8925 11.0727 7.8775V8.7525H20.708V8.75ZM28.2886 27.65L25.5257 24.785V33.75C25.5257 34.0815 25.3988 34.3995 25.1729 34.6339C24.9471 34.8683 24.6407 35 24.3213 35C24.0019 35 23.6955 34.8683 23.4696 34.6339C23.2438 34.3995 23.1169 34.0815 23.1169 33.75V24.785L20.3563 27.65C20.2452 27.7694 20.1123 27.8646 19.9654 27.9301C19.8184 27.9956 19.6604 28.0301 19.5005 28.0316C19.3406 28.033 19.182 28.0014 19.0339 27.9385C18.8859 27.8757 18.7514 27.7829 18.6384 27.6655C18.5253 27.5481 18.4358 27.4086 18.3753 27.2549C18.3147 27.1013 18.2843 26.9367 18.2856 26.7707C18.287 26.6048 18.3203 26.4407 18.3834 26.2882C18.4465 26.1357 18.5383 25.9978 18.6533 25.8825L23.471 20.8825C23.6968 20.6482 24.0031 20.5165 24.3225 20.5165C24.6419 20.5165 24.9481 20.6482 25.174 20.8825L29.9917 25.8825C30.1067 25.9978 30.1985 26.1357 30.2616 26.2882C30.3247 26.4407 30.3579 26.6048 30.3593 26.7707C30.3607 26.9367 30.3302 27.1013 30.2697 27.2549C30.2091 27.4086 30.1197 27.5481 30.0066 27.6655C29.8935 27.7829 29.759 27.8757 29.611 27.9385C29.463 28.0014 29.3044 28.033 29.1445 28.0316C28.9846 28.0301 28.8265 27.9956 28.6796 27.9301C28.5326 27.8646 28.3997 27.7694 28.2886 27.65V27.65Z" fill="black"/>
</svg>
