<svg width="50" height="50" viewBox="0 0 50 50" fill="none" xmlns="http://www.w3.org/2000/svg">
<path d="M35.4167 34.6252C36.7054 34.6252 37.75 33.5805 37.75 32.2918C37.75 31.0032 36.7054 29.9585 35.4167 29.9585C34.128 29.9585 33.0834 31.0032 33.0834 32.2918C33.0834 33.5805 34.128 34.6252 35.4167 34.6252Z" fill="black"/>
<path fill-rule="evenodd" clip-rule="evenodd" d="M35.4167 36.4585C33.8958 36.4585 30.8542 37.2085 30.75 38.7085C31.7917 40.1877 33.5 41.146 35.4167 41.146C37.3333 41.146 39.0417 40.1877 40.0833 38.7085C39.9792 37.2085 36.9375 36.4585 35.4167 36.4585Z" fill="black"/>
<path fill-rule="evenodd" clip-rule="evenodd" d="M37.5 23.1042V13.0625L21.875 6.25L6.25 13.0625V23.2917C6.25 32.75 12.9167 41.6042 21.875 43.75C23.0208 43.4792 24.125 43.0833 25.2083 42.6042C26.3565 44.2461 27.8842 45.5865 29.6615 46.5114C31.4388 47.4363 33.4131 47.9184 35.4167 47.9167C42.3125 47.9167 47.9167 42.3125 47.9167 35.4167C47.9167 29.2292 43.4167 24.1042 37.5 23.1042ZM22.9167 35.4167C22.9167 36.5833 23.0833 37.7292 23.3958 38.7917C22.8958 39.0208 22.3958 39.25 21.875 39.4167C15.2708 37.3333 10.4167 30.5833 10.4167 23.2917V15.7917L21.875 10.7917L33.3333 15.7917V23.1042C27.4167 24.1042 22.9167 29.2292 22.9167 35.4167ZM35.4167 43.75C30.8125 43.75 27.0833 40.0208 27.0833 35.4167C27.0833 30.8125 30.8125 27.0833 35.4167 27.0833C40.0208 27.0833 43.75 30.8125 43.75 35.4167C43.75 40.0208 40.0208 43.75 35.4167 43.75Z" fill="black"/>
</svg>
