<svg width="48" height="48" viewBox="0 0 48 48" fill="none" xmlns="http://www.w3.org/2000/svg">
<path d="M21.5096 18.62C21.7395 18.926 22.0442 19.1676 22.3945 19.3217C22.7448 19.4759 23.1288 19.5372 23.5096 19.5H24.6896C25.2201 19.5 25.7288 19.2893 26.1039 18.9142C26.4789 18.5391 26.6896 18.0304 26.6896 17.5C26.6896 16.9696 26.4789 16.4609 26.1039 16.0858C25.7288 15.7107 25.2201 15.5 24.6896 15.5H23.3896C22.8592 15.5 22.3505 15.2893 21.9754 14.9142C21.6004 14.5391 21.3896 14.0304 21.3896 13.5C21.3896 12.9696 21.6004 12.4609 21.9754 12.0858C22.3505 11.7107 22.8592 11.5 23.3896 11.5H24.5696C24.9505 11.4628 25.3345 11.5241 25.6848 11.6783C26.0351 11.8324 26.3398 12.074 26.5696 12.38M23.9996 11.5V10.5M23.9996 20.5V19.5" stroke="black" stroke-linecap="round" stroke-linejoin="round"/>
<path d="M41.5 5.5H6.5C5.94772 5.5 5.5 5.94772 5.5 6.5V24.5C5.5 25.0523 5.94772 25.5 6.5 25.5H41.5C42.0523 25.5 42.5 25.0523 42.5 24.5V6.5C42.5 5.94772 42.0523 5.5 41.5 5.5Z" stroke="black" stroke-linecap="round" stroke-linejoin="round"/>
<path d="M8.69 5.5C8.69 6.34604 8.35391 7.15743 7.75567 7.75567C7.15743 8.35391 6.34604 8.69 5.5 8.69M42.5 8.69C41.654 8.69 40.8426 8.35391 40.2443 7.75567C39.6461 7.15743 39.31 6.34604 39.31 5.5M8.69 25.5C8.69 25.0811 8.60749 24.6663 8.44718 24.2792C8.28686 23.8922 8.05189 23.5405 7.75567 23.2443C7.45945 22.9481 7.10779 22.7131 6.72076 22.5528C6.33373 22.3925 5.91892 22.31 5.5 22.31M42.5 22.31C42.0811 22.31 41.6663 22.3925 41.2792 22.5528C40.8922 22.7131 40.5405 22.9481 40.2443 23.2443C39.9481 23.5405 39.7131 23.8922 39.5528 24.2792C39.3925 24.6663 39.31 25.0811 39.31 25.5" stroke="black" stroke-linecap="round" stroke-linejoin="round"/>
<path d="M34 17.5C35.1046 17.5 36 16.6046 36 15.5C36 14.3954 35.1046 13.5 34 13.5C32.8954 13.5 32 14.3954 32 15.5C32 16.6046 32.8954 17.5 34 17.5Z" stroke="black" stroke-linecap="round" stroke-linejoin="round"/>
<path d="M14 17.5C15.1046 17.5 16 16.6046 16 15.5C16 14.3954 15.1046 13.5 14 13.5C12.8954 13.5 12 14.3954 12 15.5C12 16.6046 12.8954 17.5 14 17.5Z" stroke="black" stroke-linecap="round" stroke-linejoin="round"/>
<path d="M39.32 25.5H8.68004C8.51059 25.4988 8.34362 25.5407 8.19479 25.6217C8.04597 25.7027 7.92016 25.8202 7.82919 25.9631C7.73822 26.1061 7.68507 26.2698 7.67472 26.4389C7.66437 26.6081 7.69717 26.777 7.77003 26.93L8.87003 29.24C8.95108 29.4102 9.07858 29.554 9.23781 29.6548C9.39705 29.7557 9.58155 29.8095 9.77004 29.81H38.23C38.4185 29.8095 38.603 29.7557 38.7623 29.6548C38.9215 29.554 39.049 29.4102 39.13 29.24L40.23 26.93C40.3029 26.777 40.3357 26.6081 40.3254 26.4389C40.315 26.2698 40.2619 26.1061 40.1709 25.9631C40.0799 25.8202 39.9541 25.7027 39.8053 25.6217C39.6564 25.5407 39.4895 25.4988 39.32 25.5V25.5ZM16.39 29.81H31.6V34.35H16.39V29.81Z" stroke="black" stroke-linecap="round" stroke-linejoin="round"/>
<path d="M35.8805 34.3501H12.1205C11.8934 34.3429 11.6706 34.4133 11.4888 34.5496C11.3071 34.6859 11.1772 34.8801 11.1205 35.1001L9.23047 42.5001H38.7705L36.8505 35.1001C36.795 34.8852 36.6695 34.6948 36.4939 34.559C36.3183 34.4232 36.1025 34.3497 35.8805 34.3501V34.3501Z" stroke="black" stroke-linecap="round" stroke-linejoin="round"/>
</svg>
