<svg width="50" height="50" viewBox="0 0 50 50" fill="none" xmlns="http://www.w3.org/2000/svg">
<path d="M20.8333 8.33325C18.6232 8.33325 16.5035 9.21123 14.9407 10.774C13.3779 12.3368 12.5 14.4564 12.5 16.6666C12.5 18.8767 13.3779 20.9963 14.9407 22.5591C16.5035 24.1219 18.6232 24.9999 20.8333 24.9999C23.0434 24.9999 25.163 24.1219 26.7259 22.5591C28.2887 20.9963 29.1666 18.8767 29.1666 16.6666C29.1666 14.4564 28.2887 12.3368 26.7259 10.774C25.163 9.21123 23.0434 8.33325 20.8333 8.33325ZM20.8333 12.4999C21.9384 12.4999 22.9982 12.9389 23.7796 13.7203C24.561 14.5017 25 15.5615 25 16.6666C25 17.7717 24.561 18.8315 23.7796 19.6129C22.9982 20.3943 21.9384 20.8333 20.8333 20.8333C19.7282 20.8333 18.6684 20.3943 17.887 19.6129C17.1056 18.8315 16.6666 17.7717 16.6666 16.6666C16.6666 15.5615 17.1056 14.5017 17.887 13.7203C18.6684 12.9389 19.7282 12.4999 20.8333 12.4999ZM20.8333 27.0833C15.2708 27.0833 4.16663 29.8541 4.16663 35.4166V41.6666H23.9583C23.434 40.4041 23.1039 39.0696 22.9791 37.7083H8.12496V35.4166C8.12496 34.0833 14.6458 31.0416 20.8333 31.0416C21.875 31.0416 22.9166 31.1458 23.9583 31.3124C24.4929 29.9969 25.2311 28.7736 26.1458 27.6874C24.1875 27.2916 22.3125 27.0833 20.8333 27.0833ZM36.4583 27.0833C31.25 27.0833 27.0833 31.2499 27.0833 36.4583C27.0833 41.6666 31.25 45.8333 36.4583 45.8333C41.6666 45.8333 45.8333 41.6666 45.8333 36.4583C45.8333 31.2499 41.6666 27.0833 36.4583 27.0833ZM36.4583 30.2083C39.9166 30.2083 42.7083 32.9999 42.7083 36.4583C42.7083 37.6249 42.3958 38.7083 41.8333 39.5833L33.3333 31.0833C34.2083 30.5208 35.2916 30.2083 36.4583 30.2083ZM31.0833 33.3333L39.5833 41.8333C38.7083 42.3958 37.625 42.7083 36.4583 42.7083C33 42.7083 30.2083 39.9166 30.2083 36.4583C30.2083 35.2916 30.5208 34.2083 31.0833 33.3333Z" fill="black"/>
</svg>
