<svg width="28" height="26" viewBox="0 0 28 26" fill="none" xmlns="http://www.w3.org/2000/svg">
<path d="M27.4286 23H2.85714V0.714285C2.85714 0.557142 2.72857 0.428571 2.57143 0.428571H0.571428C0.414285 0.428571 0.285714 0.557142 0.285714 0.714285V25.2857C0.285714 25.4429 0.414285 25.5714 0.571428 25.5714H27.4286C27.5857 25.5714 27.7143 25.4429 27.7143 25.2857V23.2857C27.7143 23.1286 27.5857 23 27.4286 23ZM6 20.1429H8C8.15714 20.1429 8.28571 20.0143 8.28571 19.8571V14.7143C8.28571 14.5571 8.15714 14.4286 8 14.4286H6C5.84286 14.4286 5.71429 14.5571 5.71429 14.7143V19.8571C5.71429 20.0143 5.84286 20.1429 6 20.1429ZM11.4286 20.1429H13.4286C13.5857 20.1429 13.7143 20.0143 13.7143 19.8571V8.42857C13.7143 8.27143 13.5857 8.14286 13.4286 8.14286H11.4286C11.2714 8.14286 11.1429 8.27143 11.1429 8.42857V19.8571C11.1429 20.0143 11.2714 20.1429 11.4286 20.1429ZM16.8571 20.1429H18.8571C19.0143 20.1429 19.1429 20.0143 19.1429 19.8571V11.2143C19.1429 11.0571 19.0143 10.9286 18.8571 10.9286H16.8571C16.7 10.9286 16.5714 11.0571 16.5714 11.2143V19.8571C16.5714 20.0143 16.7 20.1429 16.8571 20.1429ZM22.2857 20.1429H24.2857C24.4429 20.1429 24.5714 20.0143 24.5714 19.8571V5.57143C24.5714 5.41429 24.4429 5.28571 24.2857 5.28571H22.2857C22.1286 5.28571 22 5.41429 22 5.57143V19.8571C22 20.0143 22.1286 20.1429 22.2857 20.1429Z" fill="black"/>
</svg>
