<svg width="45" height="45" viewBox="0 0 45 45" fill="none" xmlns="http://www.w3.org/2000/svg">
<path d="M22.5 3.75C20.0377 3.75 17.5995 4.23498 15.3247 5.17726C13.0498 6.11953 10.9828 7.50065 9.24175 9.24175C5.72544 12.7581 3.75 17.5272 3.75 22.5C3.75 27.4728 5.72544 32.2419 9.24175 35.7583C10.9828 37.4994 13.0498 38.8805 15.3247 39.8227C17.5995 40.765 20.0377 41.25 22.5 41.25C27.4728 41.25 32.2419 39.2746 35.7583 35.7583C39.2746 32.2419 41.25 27.4728 41.25 22.5C41.25 20.0377 40.765 17.5995 39.8227 15.3247C38.8805 13.0498 37.4994 10.9828 35.7583 9.24175C34.0172 7.50065 31.9502 6.11953 29.6753 5.17726C27.4005 4.23498 24.9623 3.75 22.5 3.75ZM13.2563 34.275C14.0625 32.5875 18.975 30.9375 22.5 30.9375C26.025 30.9375 30.9375 32.5875 31.7438 34.275C29.1176 36.3675 25.8579 37.5048 22.5 37.5C19.0125 37.5 15.8063 36.3 13.2563 34.275ZM34.425 31.5562C31.7438 28.2938 25.2375 27.1875 22.5 27.1875C19.7625 27.1875 13.2562 28.2938 10.575 31.5562C8.58035 28.9587 7.49937 25.7751 7.5 22.5C7.5 14.2313 14.2313 7.5 22.5 7.5C30.7687 7.5 37.5 14.2313 37.5 22.5C37.5 25.9125 36.3375 29.0625 34.425 31.5562ZM22.5 11.25C18.8625 11.25 15.9375 14.175 15.9375 17.8125C15.9375 21.45 18.8625 24.375 22.5 24.375C26.1375 24.375 29.0625 21.45 29.0625 17.8125C29.0625 14.175 26.1375 11.25 22.5 11.25ZM22.5 20.625C21.7541 20.625 21.0387 20.3287 20.5113 19.8012C19.9838 19.2738 19.6875 18.5584 19.6875 17.8125C19.6875 17.0666 19.9838 16.3512 20.5113 15.8238C21.0387 15.2963 21.7541 15 22.5 15C23.2459 15 23.9613 15.2963 24.4887 15.8238C25.0162 16.3512 25.3125 17.0666 25.3125 17.8125C25.3125 18.5584 25.0162 19.2738 24.4887 19.8012C23.9613 20.3287 23.2459 20.625 22.5 20.625Z" fill="black"/>
</svg>
